<?xml version="1.0" standalone="no"?>
<!DOCTYPE svg PUBLIC "-//W3C//DTD SVG 20010904//EN"
 "http://www.w3.org/TR/2001/REC-SVG-20010904/DTD/svg10.dtd">
<svg version="1.0" xmlns="http://www.w3.org/2000/svg"
 width="50.000000pt" height="50.000000pt" viewBox="0 0 50.000000 50.000000"
 preserveAspectRatio="xMidYMid meet">

<g transform="translate(0.000000,50.000000) scale(0.100000,-0.100000)"
fill="#000000" stroke="none">
<path d="M24 459 c-8 -13 5 -26 30 -31 16 -2 27 -28 55 -124 20 -67 42 -129
50 -138 11 -13 33 -16 120 -16 70 0 113 4 123 13 18 13 71 184 62 198 -3 5
-81 9 -174 9 l-169 0 -7 35 c-9 50 -70 86 -90 54z"/>
<path d="M180 105 c-19 -23 -8 -50 20 -50 16 0 26 6 28 18 4 18 -14 47 -28 47
-4 0 -13 -7 -20 -15z"/>
<path d="M346 104 c-19 -19 -17 -33 7 -48 24 -15 56 17 41 41 -15 24 -29 26
-48 7z"/>
</g>
</svg>
