<?xml version="1.0" standalone="no"?>
<!DOCTYPE svg PUBLIC "-//W3C//DTD SVG 20010904//EN"
 "http://www.w3.org/TR/2001/REC-SVG-20010904/DTD/svg10.dtd">
<svg version="1.0" xmlns="http://www.w3.org/2000/svg"
 width="50.000000pt" height="50.000000pt" viewBox="0 0 50.000000 50.000000"
 preserveAspectRatio="xMidYMid meet">
<metadata>
Created by potrace 1.16, written by Peter Selinger 2001-2019
</metadata>
<g transform="translate(0.000000,50.000000) scale(0.100000,-0.100000)"
fill="#000000" stroke="none">
<path d="M192 420 c-12 -11 -25 -32 -28 -45 -8 -31 12 -82 37 -95 23 -13 75
-13 98 0 25 13 45 64 37 95 -15 61 -98 87 -144 45z"/>
<path d="M160 201 c-46 -15 -87 -40 -94 -56 -3 -9 -6 -32 -6 -51 l0 -34 190 0
190 0 0 34 c0 51 -8 65 -54 88 -45 23 -179 35 -226 19z"/>
</g>
</svg>
