<?xml version="1.0" standalone="no"?>
<!DOCTYPE svg PUBLIC "-//W3C//DTD SVG 20010904//EN"
 "http://www.w3.org/TR/2001/REC-SVG-20010904/DTD/svg10.dtd">
<svg version="1.0" xmlns="http://www.w3.org/2000/svg"
 width="951.000000pt" height="951.000000pt" viewBox="0 0 951.000000 951.000000"
 preserveAspectRatio="xMidYMid meet">

<g transform="translate(0.000000,951.000000) scale(0.100000,-0.100000)"
fill="#000000" stroke="none">
<path d="M0 4755 l0 -4755 375 0 c327 0 375 2 375 15 0 8 -7 15 -15 15 -7 0
-19 8 -25 18 -8 12 -13 13 -16 5 -9 -20 -22 -15 -26 9 -2 12 -9 23 -17 26 -9
3 -11 -2 -7 -19 6 -19 5 -21 -4 -7 -13 22 -2 48 21 48 10 0 23 9 29 20 6 11
17 20 25 20 8 0 15 5 15 10 0 13 -13 13 -28 -2 -28 -28 -53 51 -28 91 5 8 4
16 -5 21 -10 7 -10 11 0 24 12 14 10 16 -10 17 -16 1 -8 5 21 13 37 10 41 13
23 18 -13 3 -26 14 -30 25 -3 10 -10 21 -15 24 -5 3 -2 12 7 19 12 10 15 10
15 -3 0 -8 9 -17 19 -20 15 -3 18 -1 14 11 -5 11 -3 13 6 7 10 -6 12 0 6 24
-4 20 -3 31 5 31 6 0 8 5 4 12 -5 8 7 10 44 5 56 -7 57 -6 42 24 -12 22 -32
26 -24 4 5 -12 -3 -15 -37 -14 -24 1 -36 3 -27 6 20 5 25 23 6 23 -6 0 -8 3
-5 7 4 3 2 12 -3 19 -8 9 -6 12 7 10 31 -2 28 38 -4 53 l-28 14 35 12 c32 11
33 12 15 23 -34 19 -6 13 35 -8 22 -11 40 -16 40 -11 0 5 -5 13 -11 17 -8 4
-7 9 2 15 7 4 10 11 6 15 -3 4 -12 2 -19 -4 -9 -7 -23 -5 -48 8 l-34 18 54 -3
c52 -2 53 -2 27 12 -26 13 -38 43 -17 43 6 0 10 -5 10 -11 0 -5 4 -8 9 -5 5 3
7 15 4 26 -3 11 0 20 6 20 6 0 11 5 11 11 0 6 -9 8 -22 4 -20 -5 -21 -5 -5 5
14 9 22 9 32 0 12 -10 16 -9 22 6 10 29 20 32 109 33 45 1 94 5 109 11 14 5
28 10 30 10 2 0 9 -26 15 -57 6 -32 19 -98 30 -148 11 -49 27 -130 36 -180 9
-49 24 -121 34 -160 10 -38 21 -92 25 -120 3 -27 10 -66 16 -85 5 -19 13 -54
19 -77 l11 -43 774 0 775 0 0 30 c0 17 5 30 11 30 6 0 8 7 5 16 -7 18 12 40
39 45 17 4 17 5 2 21 -14 14 -14 17 -2 22 22 8 18 24 -7 29 -21 3 -21 4 -5 12
14 6 25 0 47 -26 21 -24 29 -29 30 -17 0 12 6 15 22 10 16 -4 19 -2 13 8 -5 7
-9 27 -11 43 -1 16 -7 40 -13 53 -6 13 -16 35 -22 48 -6 13 -9 29 -5 34 3 6 2
13 -3 17 -6 3 -8 12 -4 20 4 11 -2 15 -22 15 -21 0 -26 4 -21 16 3 9 6 20 6
26 0 6 6 8 13 5 8 -3 20 -1 28 4 10 6 8 9 -10 9 -19 0 -21 3 -12 14 7 8 11 23
9 33 -2 13 3 18 20 17 25 -1 30 11 7 20 -8 3 -15 12 -15 21 0 8 -7 15 -15 15
-8 0 -15 -7 -15 -15 0 -8 -7 -15 -15 -15 -8 0 -15 -6 -15 -14 0 -19 -40 -28
-47 -10 -7 20 -23 18 -23 -3 0 -15 -2 -16 -10 -3 -8 12 -10 10 -10 -8 0 -33
-24 -22 -28 12 -3 22 0 27 15 26 33 -4 43 0 43 15 0 8 8 15 18 15 10 0 23 5
30 12 9 9 12 8 12 -5 0 -9 4 -17 10 -17 5 0 7 7 4 15 -5 11 1 15 20 15 16 0
26 6 26 14 0 9 -7 12 -20 9 -24 -6 -26 12 -5 34 14 14 14 16 -2 28 -14 10 -15
16 -5 27 7 9 8 18 2 24 -14 14 -21 82 -9 89 5 4 13 -5 19 -19 5 -14 14 -26 20
-26 6 0 6 -7 -2 -20 -7 -10 -8 -23 -4 -27 5 -4 11 -3 13 4 4 12 53 -9 82 -35
12 -12 12 -15 0 -24 -11 -8 -11 -9 3 -4 12 3 20 -4 28 -28 7 -21 19 -36 33
-40 17 -5 19 -8 8 -15 -17 -11 -7 -41 14 -41 9 0 24 7 32 16 15 15 18 14 33
-6 l16 -22 18 24 17 23 -5 -33 c-5 -29 -4 -31 9 -18 8 8 15 23 15 34 0 26 60
27 104 1 32 -19 36 -19 81 -4 26 9 54 13 63 9 10 -4 20 -6 25 -6 4 1 7 -6 7
-15 0 -14 2 -15 9 -4 5 7 13 11 18 8 11 -7 103 19 117 33 6 6 18 10 27 10 23
0 27 15 18 69 -4 27 -3 49 3 52 6 4 0 14 -13 22 -19 14 -20 17 -6 22 18 8 15
40 -8 65 -17 19 -21 45 -4 35 6 -4 8 -9 6 -12 -3 -2 13 -23 34 -46 33 -35 113
-160 114 -177 0 -3 10 -18 21 -35 12 -16 34 -57 48 -90 15 -33 38 -83 52 -110
13 -28 24 -54 24 -59 0 -5 6 -17 13 -25 7 -9 22 -36 32 -61 10 -25 41 -93 69
-152 l51 -108 1243 0 1244 0 -63 52 c-35 29 -88 76 -117 104 -48 44 -55 56
-58 95 -1 24 -1 36 2 27 7 -24 24 -23 24 2 0 11 5 20 10 20 6 0 10 -7 10 -15
0 -8 7 -15 16 -15 14 0 14 3 4 15 -7 8 -9 15 -4 15 5 0 2 5 -6 10 -12 8 -10
10 9 10 13 0 22 -3 18 -6 -6 -7 24 -44 36 -44 5 0 5 9 2 20 -7 21 9 28 20 10
4 -6 10 -8 15 -5 4 3 23 -1 41 -9 23 -10 29 -16 19 -19 -41 -14 -42 -17 -3
-13 23 2 53 -2 67 -9 14 -8 26 -12 26 -9 0 3 7 -2 16 -10 8 -9 21 -16 28 -16
8 0 19 -7 26 -15 7 -8 16 -13 20 -10 4 3 15 -7 25 -21 9 -14 24 -34 33 -44 9
-10 33 -41 52 -69 l35 -51 881 0 882 0 5 21 c4 14 10 18 18 13 10 -6 10 -9 1
-12 -28 -9 -9 -21 32 -19 24 1 42 5 40 8 -2 4 14 9 36 11 42 4 57 -8 18 -14
-13 -2 41 -4 120 -6 l142 -2 0 25 c0 14 -3 24 -7 23 -5 -1 -21 4 -36 10 -16 7
-33 10 -37 7 -5 -3 -17 6 -26 20 -9 14 -21 22 -28 18 -26 -17 -35 -11 -25 14
13 35 11 53 -5 47 -16 -6 -28 10 -30 40 -1 15 -8 22 -26 23 -14 1 -18 0 -7 -3
9 -3 17 -10 17 -15 0 -6 -8 -5 -20 1 -14 8 -19 17 -15 30 4 13 -2 21 -25 31
-26 12 -33 25 -29 55 0 4 -13 15 -30 25 -16 10 -35 27 -41 38 -6 12 -15 21
-21 21 -6 0 -8 -4 -5 -9 13 -20 -37 4 -64 31 -17 16 -34 27 -40 23 -5 -3 -10
-1 -10 5 0 6 -8 10 -17 9 -21 -3 -92 19 -112 35 -8 6 -16 10 -18 9 -9 -7 -54
-2 -49 5 3 5 -7 9 -22 9 -46 0 -102 13 -102 25 0 6 10 7 28 3 15 -4 36 -8 47
-10 11 -1 20 -3 20 -4 0 -1 20 -4 45 -7 25 -2 54 -8 65 -13 11 -5 65 -21 120
-37 55 -15 135 -45 179 -66 43 -21 117 -47 165 -58 119 -27 131 -31 131 -42 0
-5 10 -6 21 -3 14 5 19 4 15 -4 -5 -7 -1 -9 8 -5 11 4 16 0 16 -12 0 -12 3
-15 10 -8 12 12 80 6 80 -7 0 -5 -8 -9 -17 -10 -13 0 -14 -2 -4 -6 10 -4 5
-10 -15 -20 -16 -7 -20 -11 -9 -8 16 5 17 4 8 -6 -9 -9 -16 -9 -25 -1 -8 6
-27 9 -43 8 -39 -5 -55 2 -55 24 0 11 -5 22 -10 25 -5 3 -10 1 -10 -4 0 -17
-18 -13 -41 10 -11 11 -23 18 -26 15 -9 -8 54 -66 71 -66 8 0 16 -6 19 -14 4
-9 14 -12 27 -9 15 4 19 2 15 -10 -6 -13 13 -28 40 -32 6 0 9 -6 8 -13 -2 -6
8 -14 22 -18 13 -3 41 -25 62 -48 71 -79 104 -96 183 -96 l70 0 0 3926 0 3926
-66 67 -66 66 7 155 c12 278 13 313 20 515 3 110 8 234 10 275 2 41 7 189 11
328 l7 252 -2037 0 -2036 0 5 -107 c9 -158 12 -331 7 -363 -2 -18 -11 -30 -24
-33 -26 -7 -18 -31 10 -35 12 -2 22 -8 22 -13 0 -6 20 -8 48 -4 41 4 45 3 30
-9 -10 -7 -18 -18 -18 -23 0 -11 -37 -27 -54 -24 -14 3 -36 -21 -30 -31 4 -6
-3 -5 -15 1 -16 9 -21 9 -21 -1 0 -17 -73 -49 -120 -53 -14 -1 -33 -6 -42 -10
-14 -5 -18 -2 -18 13 0 15 -8 22 -27 24 -34 4 -39 22 -14 47 12 12 16 21 10
21 -5 0 -7 5 -3 12 4 7 8 23 9 36 0 13 7 27 14 31 8 5 11 17 7 29 -6 17 -3 19
14 15 11 -3 20 0 20 6 0 6 -16 11 -36 11 -30 0 -34 2 -25 14 9 11 9 15 -1 19
-8 3 -9 6 -2 6 8 1 9 12 4 35 -4 18 -3 40 2 49 5 9 5 33 -1 56 -9 42 -6 52 13
45 9 -3 12 16 13 66 1 56 -2 70 -12 66 -9 -3 -12 0 -8 10 3 7 9 14 15 14 5 0
6 5 3 10 -4 6 -11 8 -16 5 -5 -3 -6 1 -3 9 4 10 1 16 -7 17 -8 0 -4 4 9 9 58
24 11 29 -283 30 l-305 0 -2 -67 c-1 -38 -2 -76 -1 -85 0 -10 -4 -18 -9 -18
-5 0 -7 -4 -4 -9 3 -5 8 -71 12 -147 3 -77 6 -147 7 -157 1 -12 -9 -23 -31
-32 -31 -13 -33 -13 -28 3 5 13 -1 17 -25 19 -23 2 -30 -1 -25 -12 4 -10 -5
-9 -34 6 -22 12 -40 25 -40 30 0 12 17 12 25 -1 3 -5 13 -7 23 -4 14 5 15 4 2
-5 -17 -12 -2 -15 25 -5 14 6 14 9 -6 30 -11 12 -27 20 -34 18 -7 -3 -19 10
-28 33 -12 30 -12 39 -2 41 7 2 11 11 8 23 -6 21 -23 26 -23 7 0 -6 -3 -8 -7
-5 -3 4 1 15 10 25 14 16 14 19 -2 41 -20 26 -17 56 5 65 16 6 19 47 4 62 -8
8 -5 18 9 35 15 19 17 28 8 44 -6 11 -10 30 -8 43 l2 22 -330 -1 c-246 0 -331
-4 -332 -12 -4 -45 -10 -195 -9 -257 3 -311 -3 -468 -19 -499 -7 -12 -9 -26
-5 -32 5 -8 1 -8 -14 0 -17 9 -19 8 -15 -9 6 -24 22 -25 71 -4 20 8 53 17 72
18 19 2 40 5 45 6 6 1 20 2 33 1 24 -1 31 -21 7 -21 -8 0 -15 -3 -15 -7 0 -5
-13 -9 -30 -10 -16 0 -46 -2 -66 -3 -25 -1 -32 -5 -23 -10 14 -10 10 -13 -36
-24 -11 -2 -2 -4 20 -3 22 0 46 -2 52 -6 6 -4 14 -3 18 3 9 14 25 12 25 -3 0
-14 -96 -51 -110 -42 -4 2 -15 -4 -25 -15 -10 -11 -22 -20 -28 -20 -5 0 -39
-14 -74 -31 -63 -30 -189 -140 -175 -153 3 -3 -2 -6 -11 -6 -9 0 -24 -12 -34
-27 -10 -16 -21 -30 -25 -33 -4 -3 -11 -18 -17 -33 -10 -26 -31 -38 -31 -17 0
6 4 10 9 10 5 0 7 9 4 21 -3 12 -1 24 5 28 7 4 13 24 14 44 2 20 6 37 11 37 4
0 5 11 1 25 -5 22 4 36 68 98 67 65 85 97 57 97 -6 0 -7 -5 -3 -12 5 -7 3 -8
-5 -3 -9 5 -10 10 -2 18 14 14 14 57 0 57 -7 0 -9 10 -5 28 5 21 4 24 -5 12
-8 -12 -9 -10 -3 10 11 40 13 180 2 180 -5 0 -6 9 -3 21 12 36 11 180 -1 175
-7 -3 -9 22 -7 77 4 87 9 100 23 77 8 -13 10 -12 10 3 0 9 -5 17 -11 17 -6 0
-9 9 -6 19 2 10 1 25 -4 32 -4 8 -3 16 3 20 16 10 17 88 1 82 -8 -3 -13 3 -13
17 0 11 4 18 10 15 11 -7 13 6 4 29 -5 13 -27 16 -135 16 l-129 0 -2 -42 c0
-24 0 -50 1 -58 7 -58 6 -72 -6 -78 -9 -6 -10 -16 -4 -40 7 -22 6 -30 -1 -26
-6 4 -8 -1 -5 -12 16 -53 17 -113 4 -164 -8 -31 -11 -56 -5 -58 5 -2 4 -10 -2
-17 -8 -9 -8 -15 0 -20 20 -12 10 -34 -17 -38 l-28 -4 28 -2 27 -1 2 -92 c1
-51 1 -104 0 -118 -4 -45 -3 -65 3 -87 4 -17 2 -21 -9 -17 -8 3 -17 1 -21 -5
-3 -6 1 -11 9 -11 29 0 37 -75 14 -119 -10 -19 -10 -25 0 -28 7 -3 12 -23 12
-50 0 -41 -1 -44 -23 -37 -21 6 -21 6 -4 -13 18 -21 22 -45 10 -57 -5 -4 -8
-13 -8 -19 -1 -7 -6 -11 -13 -9 -7 1 -12 -6 -12 -15 0 -12 -3 -14 -8 -6 -10
16 -62 28 -62 14 0 -6 7 -11 16 -11 13 0 14 -3 4 -15 -7 -8 -17 -12 -23 -8 -6
4 -8 0 -4 -9 4 -12 -3 -17 -26 -21 -18 -3 -41 -9 -51 -13 -16 -6 -18 -4 -14
14 3 11 1 23 -6 25 -6 3 5 4 24 3 25 -1 35 4 38 17 2 12 -3 17 -20 17 -33 0
-46 11 -45 40 0 14 -5 38 -12 54 -14 35 -11 72 7 68 6 -1 12 7 12 18 0 11 -7
20 -15 20 -22 0 -18 21 5 27 23 6 26 19 8 26 -10 4 -9 8 2 16 13 9 13 11 -2
11 -23 0 -23 6 3 38 18 23 18 27 4 32 -13 5 -12 7 5 20 23 17 27 35 5 26 -13
-4 -13 -2 -5 14 14 26 13 30 -7 23 -15 -6 -16 -4 -6 8 9 11 10 25 4 47 -7 23
-6 40 5 61 17 34 9 68 -12 50 -11 -9 -12 -4 -7 28 3 21 10 40 15 41 16 7 8 41
-11 47 -17 5 -24 34 -10 45 12 10 19 59 9 65 -16 10 -12 55 5 55 16 0 21 26 5
32 -5 2 -11 19 -12 38 -2 26 1 34 11 32 12 -3 12 0 2 11 -14 18 -4 67 17 83
11 8 12 15 4 30 -24 47 -33 72 -32 85 1 8 2 20 1 27 -1 9 -302 12 -1471 12
l-1470 0 0 -4755z m3970 4726 c0 -6 -4 -13 -10 -16 -5 -3 -10 1 -10 9 0 9 5
16 10 16 6 0 10 -4 10 -9z m-90 -93 c-1 -30 -3 -38 -9 -28 -8 14 -4 70 5 70 2
0 4 -19 4 -42z m59 29 c-9 -7 -19 -23 -24 -35 -6 -21 -3 -20 24 9 17 18 34 30
37 26 7 -7 -56 -66 -71 -67 -6 0 -9 16 -7 38 3 32 7 37 30 39 23 1 24 -1 11
-10z m6 -66 c-3 -5 -1 -12 5 -16 5 -3 10 -1 10 4 0 6 4 11 8 11 4 0 2 -34 -6
-75 -15 -74 -34 -97 -45 -55 -3 11 -16 24 -29 29 -21 9 -21 10 -3 12 14 1 11
4 -10 9 l-30 8 37 1 c21 1 38 -4 40 -11 3 -8 9 -4 17 10 10 18 10 27 1 38 -12
13 -8 44 5 44 4 0 4 -4 0 -9z m-55 -45 c0 -3 -4 -8 -10 -11 -5 -3 -10 -1 -10
4 0 6 5 11 10 11 6 0 10 -2 10 -4z m40 -6 c0 -5 -4 -10 -10 -10 -5 0 -10 5
-10 10 0 6 5 10 10 10 6 0 10 -4 10 -10z m-55 -90 c3 -5 1 -10 -4 -10 -6 0
-11 5 -11 10 0 6 2 10 4 10 3 0 8 -4 11 -10z m93 -72 c7 -7 12 -16 12 -20 0
-15 -15 -8 -28 12 -13 22 -3 27 16 8z m-18 -83 c10 -13 9 -15 -9 -15 -12 0
-21 6 -21 15 0 8 4 15 9 15 5 0 14 -7 21 -15z m1167 -21 c-3 -3 -12 -4 -19 -1
-8 3 -5 6 6 6 11 1 17 -2 13 -5z m383 -74 c0 -5 -5 -10 -11 -10 -5 0 -7 5 -4
10 3 6 8 10 11 10 2 0 4 -4 4 -10z m187 -115 c-8 -18 -28 -20 -24 -2 2 13 19
28 25 22 3 -2 2 -11 -1 -20z m-37 -5 c0 -5 -4 -10 -10 -10 -5 0 -10 5 -10 10
0 6 5 10 10 10 6 0 10 -4 10 -10z m-40 -50 c0 -5 -2 -10 -4 -10 -3 0 -8 5 -11
10 -3 6 -1 10 4 10 6 0 11 -4 11 -10z m-2703 -262 c-3 -8 -6 -5 -6 6 -1 11 2
17 5 13 3 -3 4 -12 1 -19z m669 -65 c-2 -10 -13 -23 -26 -30 -12 -6 -26 -17
-30 -23 -4 -7 -13 -9 -19 -6 -6 4 -9 12 -5 17 3 5 9 7 13 5 4 -3 18 8 31 25
28 33 39 37 36 12z m-616 -193 c0 -5 -5 -10 -11 -10 -5 0 -7 5 -4 10 3 6 8 10
11 10 2 0 4 -4 4 -10z m3557 -112 c-3 -8 -6 -5 -6 6 -1 11 2 17 5 13 3 -3 4
-12 1 -19z m33 2 c9 -16 8 -18 -5 -14 -8 4 -15 12 -15 20 0 20 7 17 20 -6z
m-3633 -12 c-3 -8 -6 -5 -6 6 -1 11 2 17 5 13 3 -3 4 -12 1 -19z m193 -24
c-18 -21 -24 -10 -9 18 8 14 14 18 17 10 2 -7 -2 -19 -8 -28z m3513 -74 c10
-16 14 -30 8 -30 -10 0 -41 39 -41 52 0 17 17 6 33 -22z m57 -80 c0 -5 -7 -10
-16 -10 -8 0 -12 5 -9 10 3 6 10 10 16 10 5 0 9 -4 9 -10z m55 -41 c17 -12 22
-18 12 -15 -10 3 -27 6 -38 6 -10 0 -19 7 -19 15 0 20 9 19 45 -6z m-833 -411
c7 -19 -2 -38 -18 -38 -15 0 -17 9 -8 34 7 19 20 21 26 4z m-782 -155 c17 -16
17 -20 3 -38 -15 -20 -15 -20 -10 3 3 12 1 22 -4 22 -5 0 -9 -16 -9 -36 0 -38
-19 -39 -21 -1 -1 19 -2 18 -14 -8 -8 -16 -14 -25 -15 -20 0 6 -5 3 -10 -5 -8
-13 -10 -13 -10 2 0 9 4 28 10 42 6 16 6 27 -1 31 -17 11 1 25 32 25 16 0 38
-8 49 -17z m218 -5 c-7 -13 -20 -28 -28 -35 -13 -10 -13 -12 2 -18 23 -9 14
-25 -11 -18 -11 3 -21 -2 -24 -11 -4 -10 -1 -13 9 -9 19 7 18 -7 -2 -22 -15
-10 -15 -13 1 -28 15 -16 15 -17 -7 -15 -14 2 -22 -2 -20 -9 1 -7 -1 -13 -5
-14 -5 0 -27 -2 -50 -5 -27 -3 -43 -1 -43 6 0 5 -5 10 -11 10 -5 0 -7 -4 -4
-10 3 -5 2 -10 -3 -10 -5 0 -7 23 -4 50 3 33 1 50 -7 50 -6 0 -11 -4 -11 -10
0 -5 -4 -10 -10 -10 -18 0 0 25 31 42 23 14 29 23 24 38 -6 20 9 28 20 11 3
-6 20 -1 40 10 19 11 42 18 52 15 10 -3 25 -1 33 4 29 18 42 12 28 -12z m1495
-58 c21 -25 21 -26 1 -34 -8 -3 -12 -2 -9 4 3 6 1 10 -4 10 -6 0 -11 8 -11 18
0 14 -2 15 -10 2 -8 -13 -10 -12 -10 3 0 23 22 22 43 -3z m-1418 -20 c-3 -5
-13 -10 -21 -10 -8 0 -14 -6 -14 -13 0 -7 -9 -18 -19 -24 -15 -10 -20 -9 -25
2 -3 9 1 15 9 15 8 0 14 5 13 11 -2 6 5 13 15 14 11 2 21 6 25 9 9 10 24 7 17
-4z m1486 -47 c7 -19 5 -22 -11 -20 -25 4 -38 17 -17 17 10 0 17 4 17 10 0 5
-6 7 -14 4 -8 -3 -17 0 -21 6 -5 8 0 11 15 8 13 -1 27 -13 31 -25z m-1586 -3
c-3 -5 -12 -7 -20 -3 -21 7 -19 13 6 13 11 0 18 -4 14 -10z m1605 -316 c55
-93 100 -195 100 -229 0 -13 7 -42 15 -65 8 -23 15 -57 15 -76 0 -18 5 -36 10
-39 6 -3 10 -19 10 -36 0 -16 6 -38 12 -49 10 -16 10 -23 -3 -35 -14 -14 -18
-14 -40 3 -22 17 -66 36 -79 34 -12 -2 -50 43 -50 59 0 10 -10 19 -25 23 -13
3 -36 17 -51 31 -15 14 -33 25 -40 25 -8 0 -14 7 -14 15 0 9 -7 18 -15 21 -8
4 -15 13 -15 21 0 19 35 8 61 -18 22 -22 35 -24 42 -6 3 7 6 5 6 -5 1 -24 21
-23 21 0 0 10 -9 24 -20 32 -11 8 -20 20 -20 27 0 21 -23 63 -31 57 -5 -3 -9
0 -9 5 0 6 5 11 11 11 8 0 8 5 -1 15 -7 8 -9 15 -6 15 4 0 -4 10 -17 23 -30
28 -39 53 -24 66 9 7 28 -4 67 -40 29 -27 50 -49 45 -49 -4 0 2 -8 13 -19 12
-10 22 -21 22 -25 0 -14 36 -46 52 -46 17 0 17 1 -1 19 -10 10 -25 35 -32 55
-7 20 -18 36 -24 36 -7 0 -17 12 -23 26 -7 14 -8 23 -2 19 5 -3 10 -2 10 4 0
6 -12 14 -26 17 -17 4 -22 9 -14 14 9 5 9 9 1 14 -6 4 -11 18 -11 31 0 13 -5
25 -11 27 -9 3 -9 10 1 27 10 19 9 29 -1 50 -8 14 -17 28 -20 31 -8 7 -29 47
-29 55 0 20 96 -99 140 -171z m1802 -7 c73 -75 255 -259 403 -409 149 -150
276 -281 284 -291 12 -15 12 -17 -2 -11 -9 3 -23 17 -32 30 -8 13 -22 24 -29
24 -8 0 -16 7 -20 15 -3 8 -11 12 -18 10 -8 -3 -31 13 -53 35 -40 41 -85 54
-85 25 0 -8 -5 -15 -10 -15 -7 0 -7 6 0 19 5 11 10 22 10 25 0 12 -38 6 -44
-6 -3 -7 -3 -3 -1 8 5 18 0 22 -36 28 -43 7 -84 36 -61 44 17 5 5 22 -17 22
-12 0 -20 10 -24 29 -5 22 -13 31 -36 36 -33 7 -57 30 -63 60 -3 14 -11 19
-26 18 -26 -3 -30 13 -4 20 14 4 14 5 -3 6 -11 1 -28 15 -37 31 -10 18 -25 30
-37 30 -11 0 -23 5 -26 10 -3 6 1 10 10 10 28 0 11 24 -24 32 -26 7 -31 12
-26 29 6 18 4 20 -13 15 -16 -5 -20 -3 -18 11 3 19 -16 43 -33 43 -17 0 -13
11 11 31 11 11 17 19 12 19 -6 0 -15 -5 -22 -12 -9 -9 -13 -7 -18 5 -3 9 -15
17 -25 17 -18 0 -23 9 -20 35 0 6 -14 17 -32 24 -36 16 -88 51 -99 66 -5 6
-15 5 -28 -3 -21 -13 -40 -9 -40 9 0 6 25 9 60 8 33 -1 63 1 67 4 3 4 21 5 39
3 27 -2 57 -28 166 -139z m-432 129 c0 -9 -50 -12 -62 -5 -8 6 1 9 25 9 20 0
37 -2 37 -4z m73 -3 c-7 -2 -19 -2 -25 0 -7 3 -2 5 12 5 14 0 19 -2 13 -5z
m-2286 -39 c10 3 25 1 33 -4 13 -8 11 -13 -12 -35 -15 -14 -32 -25 -38 -25 -6
0 -15 -11 -20 -25 -5 -14 -16 -25 -25 -25 -8 0 -15 -7 -15 -15 0 -9 6 -12 15
-9 8 4 15 1 15 -5 0 -6 -11 -11 -25 -11 -16 0 -25 6 -25 16 0 14 -3 14 -16 3
-14 -11 -11 -15 20 -28 21 -9 34 -21 31 -28 -2 -7 0 -13 5 -13 6 0 10 5 10 12
0 9 3 9 12 0 16 -16 28 -15 28 3 0 8 -4 15 -10 15 -5 0 -10 7 -10 15 0 24 20
18 30 -9 5 -13 14 -27 19 -31 6 -3 11 -17 11 -30 0 -12 7 -25 15 -29 16 -6 21
-56 6 -56 -5 0 -12 -7 -15 -16 -4 -12 0 -15 17 -12 13 1 32 -5 41 -15 19 -18
51 -24 41 -7 -4 7 3 8 21 4 17 -4 25 -3 21 3 -8 13 84 14 100 1 6 -5 21 -8 32
-6 11 2 19 -1 18 -7 -1 -5 -5 -9 -8 -8 -4 1 -15 -8 -25 -20 -15 -18 -16 -19
-2 -8 15 11 20 10 35 -4 16 -17 16 -17 -5 -11 -26 9 -28 3 -6 -18 14 -15 13
-16 -11 -16 -16 0 -24 -4 -20 -11 4 -6 13 -8 21 -5 8 3 14 -1 14 -9 0 -8 5
-15 11 -15 5 0 7 5 4 10 -11 18 6 11 37 -16 18 -14 38 -23 47 -20 13 5 13 4
-1 -8 -26 -19 -24 -40 2 -24 16 10 24 10 40 0 27 -16 27 -16 22 18 -6 43 17
39 59 -11 19 -22 45 -51 59 -65 19 -18 22 -26 12 -36 -9 -9 -17 -7 -34 9 -13
11 -33 24 -45 28 -13 3 -23 13 -23 21 0 17 -12 18 -28 2 -8 -8 -15 -8 -28 3
-13 11 -18 11 -21 2 -3 -7 -12 -13 -22 -13 -18 0 -41 -18 -41 -33 0 -5 7 -7
14 -4 9 4 17 -2 21 -13 4 -11 12 -17 21 -13 8 3 14 -1 14 -11 0 -9 7 -16 15
-16 8 0 14 -5 12 -12 -1 -6 10 -18 25 -25 33 -17 95 -78 103 -102 3 -10 17
-23 31 -29 21 -10 23 -15 14 -32 -7 -14 -7 -20 0 -20 15 0 12 -15 -8 -40 -17
-20 -21 -21 -43 -9 -13 8 -28 19 -32 24 -9 10 -5 -5 10 -42 4 -10 -8 -1 -26
20 -35 39 -39 41 -59 29 -18 -12 -4 -42 15 -35 12 5 14 3 8 -6 -4 -8 -2 -17 5
-21 9 -6 7 -11 -10 -20 -14 -8 -20 -8 -16 -1 4 6 -2 21 -13 33 -26 27 -27 44
-3 57 15 9 15 10 0 11 -36 0 -48 -11 -36 -33 6 -12 11 -24 11 -27 0 -3 2 -11
5 -18 8 -23 -8 -27 -23 -5 -19 28 -69 20 -61 -10 4 -17 1 -19 -31 -14 -20 4
-40 12 -44 19 -4 7 -11 9 -15 5 -8 -7 -44 41 -44 58 0 6 4 4 9 -4 8 -12 12
-12 25 -2 20 17 20 31 1 31 -8 0 -15 5 -15 11 0 5 -4 8 -9 4 -5 -3 -12 -1 -16
5 -3 5 1 10 9 10 9 0 16 5 16 11 0 8 4 8 13 0 8 -6 31 -13 53 -15 21 -2 56 -7
77 -11 20 -4 37 -5 37 -1 0 6 -54 33 -95 47 -19 7 -18 7 3 8 l23 1 -20 22
c-11 11 -18 25 -15 30 3 4 1 8 -4 8 -5 0 -22 11 -38 25 -23 20 -30 22 -32 10
-2 -8 -10 -15 -18 -15 -21 0 -56 39 -50 56 3 8 0 14 -7 15 -7 0 -32 2 -56 4
-40 3 -43 2 -39 -19 4 -19 1 -22 -14 -18 -13 3 -16 7 -8 12 14 9 10 42 -7 47
-7 3 -9 -3 -6 -16 3 -12 1 -21 -6 -21 -6 0 -11 9 -11 21 0 15 -5 19 -15 15 -8
-3 -15 -2 -15 2 0 4 -13 13 -30 20 -35 16 -39 32 -10 39 31 8 23 26 -10 21
-25 -4 -32 0 -45 29 -12 25 -14 38 -6 47 6 7 8 16 4 19 -3 4 -1 7 5 7 7 0 12
11 12 25 0 23 -4 25 -45 25 -25 0 -45 5 -45 10 0 6 -7 10 -15 10 -8 0 -15 9
-15 20 0 11 -7 20 -15 20 -8 0 -15 6 -15 13 0 9 -2 9 -9 -1 -6 -11 -9 -11 -17
0 -15 20 -11 82 6 99 13 15 19 14 58 -8 30 -17 47 -22 54 -15 7 7 3 14 -11 21
-11 6 -18 17 -16 24 6 15 -14 41 -39 50 -12 5 -16 13 -12 24 4 9 10 36 13 60
4 30 13 47 29 58 13 8 24 11 24 5 0 -5 5 -10 10 -10 6 0 10 7 10 16 0 10 6 14
18 10 9 -3 28 3 42 14 17 13 28 16 37 8 7 -5 20 -7 30 -4z m2388 -4 c3 -5 1
-10 -4 -10 -6 0 -11 5 -11 10 0 6 2 10 4 10 3 0 8 -4 11 -10z m-2310 -140 c4
-6 -5 -10 -20 -10 -15 0 -24 4 -20 10 3 6 12 10 20 10 8 0 17 -4 20 -10z
m2512 -56 c-3 -3 -12 -4 -19 -1 -8 3 -5 6 6 6 11 1 17 -2 13 -5z m-2487 -94
c0 -5 -4 -10 -10 -10 -5 0 -10 5 -10 10 0 6 5 10 10 10 6 0 10 -4 10 -10z
m540 -70 c0 -13 -11 -13 -30 0 -12 8 -11 10 8 10 12 0 22 -4 22 -10z m-209
-58 c8 2 15 -8 17 -22 2 -14 10 -30 19 -37 8 -6 12 -17 8 -23 -11 -18 -56 30
-49 52 3 12 0 18 -9 18 -8 0 -18 7 -21 16 -5 14 -4 15 8 5 8 -6 20 -10 27 -9z
m2369 8 c0 -5 -4 -10 -10 -10 -5 0 -10 5 -10 10 0 6 5 10 10 10 6 0 10 -4 10
-10z m-2280 -26 c0 -2 -9 -4 -20 -4 -11 0 -20 4 -20 9 0 5 9 7 20 4 11 -3 20
-7 20 -9z m-635 -24 c3 -6 -1 -7 -9 -4 -18 7 -21 14 -7 14 6 0 13 -4 16 -10z
m-15 -33 c0 -4 -9 -3 -20 3 -11 6 -20 15 -20 20 0 6 9 5 20 -2 11 -7 20 -16
20 -21z m864 17 c20 -3 37 -11 38 -18 5 -41 18 -66 33 -66 7 0 16 -7 19 -16 3
-8 10 -12 16 -9 5 3 10 -1 10 -9 0 -9 -5 -16 -11 -16 -8 0 -8 -4 -1 -12 5 -7
7 -21 3 -31 -6 -17 -8 -16 -21 7 -7 14 -22 26 -32 26 -10 0 -17 3 -16 8 3 16
-22 62 -35 62 -17 0 -79 75 -70 84 4 4 12 4 19 2 7 -3 29 -8 48 -12z m-54 -47
c8 -3 3 -5 -12 -4 -17 1 -28 7 -28 15 0 10 4 11 13 5 6 -6 19 -13 27 -16z
m-30 -62 c0 -25 -16 -24 -18 1 -1 15 2 22 8 19 6 -3 10 -12 10 -20z m-220 -47
c0 -5 -4 -8 -10 -8 -5 0 -10 10 -10 23 0 18 2 19 10 7 5 -8 10 -18 10 -22z
m260 22 c0 -5 -4 -10 -10 -10 -5 0 -10 5 -10 10 0 6 5 10 10 10 6 0 10 -4 10
-10z m60 -50 c11 0 25 -9 32 -20 7 -11 20 -20 28 -20 21 0 66 -53 82 -95 6
-19 15 -35 18 -35 7 0 33 -48 34 -62 1 -3 4 -10 9 -14 4 -4 7 -14 7 -23 0 -9
9 -27 19 -40 15 -20 17 -29 8 -48 -5 -13 -13 -23 -17 -23 -15 0 -47 47 -48 70
-1 13 -8 30 -16 36 -9 6 -13 14 -9 17 3 4 1 7 -5 7 -7 0 -12 -9 -12 -19 0 -32
-19 -35 -30 -5 -8 21 -8 30 2 36 8 6 5 7 -10 3 -21 -6 -23 -5 -13 14 9 16 18
19 41 15 25 -6 28 -4 23 15 -3 11 -11 25 -18 31 -8 6 -11 18 -8 26 3 7 -2 17
-11 20 -9 3 -16 12 -16 18 0 18 -46 37 -67 29 -16 -6 -17 -5 -3 12 14 17 13
17 -9 10 -21 -6 -23 -4 -19 13 5 16 0 21 -23 26 -16 3 -29 12 -29 20 0 22 24
25 32 4 4 -10 16 -18 28 -18z m0 30 c0 -5 -5 -10 -11 -10 -5 0 -7 5 -4 10 3 6
8 10 11 10 2 0 4 -4 4 -10z m135 -20 c-5 -8 -11 -8 -17 -2 -6 6 -7 16 -3 22 5
8 11 8 17 2 6 -6 7 -16 3 -22z m-415 -10 c0 -5 -2 -10 -4 -10 -3 0 -8 5 -11
10 -3 6 -1 10 4 10 6 0 11 -4 11 -10z m184 -11 c14 -11 26 -26 26 -33 0 -16
34 -48 43 -41 4 3 2 -1 -3 -7 -9 -10 -13 -10 -19 1 -5 7 -14 10 -20 7 -6 -4
-11 -3 -11 3 0 6 -13 24 -30 41 -47 48 -37 69 14 29z m2493 -6 c-8 -7 -37 9
-31 19 3 5 12 4 20 -3 8 -6 13 -14 11 -16z m-2137 -45 c0 -5 -4 -8 -10 -8 -5
0 -10 6 -10 14 0 7 -7 19 -15 26 -8 7 -15 17 -15 23 0 5 11 -3 25 -19 14 -16
25 -32 25 -36z m-995 -8 c3 -5 -1 -10 -9 -10 -9 0 -16 5 -16 10 0 6 4 10 9 10
6 0 13 -4 16 -10z m62 -6 c-3 -3 -12 -4 -19 -1 -8 3 -5 6 6 6 11 1 17 -2 13
-5z m3148 -23 c-6 -5 -25 10 -25 20 0 5 6 4 14 -3 8 -7 12 -15 11 -17z m-3065
5 c0 -3 -4 -8 -10 -11 -5 -3 -10 -1 -10 4 0 6 5 11 10 11 6 0 10 -2 10 -4z
m595 -46 c3 -5 1 -10 -4 -10 -6 0 -11 5 -11 10 0 6 2 10 4 10 3 0 8 -4 11 -10z
m-615 -30 c0 -21 14 -27 24 -11 4 5 0 12 -6 14 -7 3 1 6 18 6 19 1 38 -7 49
-19 18 -19 17 -20 -3 -20 -25 0 -26 -4 -12 -31 9 -15 7 -19 -5 -19 -21 0 -48
27 -40 39 3 6 -8 8 -25 6 -32 -4 -33 -3 -24 33 8 27 24 29 24 2z m115 0 c3 -5
1 -10 -4 -10 -6 0 -11 5 -11 10 0 6 2 10 4 10 3 0 8 -4 11 -10z m568 -10 c-9
-10 -24 -15 -38 -12 -32 6 -11 29 26 29 23 0 25 -2 12 -17z m2558 3 c13 -16
12 -17 -3 -4 -10 7 -18 15 -18 17 0 8 8 3 21 -13z m-3341 -88 c9 -11 10 -15 1
-15 -7 0 -19 7 -27 15 -13 13 -13 15 -1 15 8 0 20 -7 27 -15z m175 -5 c3 -5 1
-10 -4 -10 -6 0 -11 5 -11 10 0 6 2 10 4 10 3 0 8 -4 11 -10z m549 -22 c-4 -6
1 -8 14 -4 14 5 28 -2 51 -24 18 -18 36 -28 42 -24 8 4 9 3 5 -4 -8 -13 48
-72 68 -72 9 0 12 -7 9 -20 -3 -10 2 -26 11 -35 19 -19 21 -86 4 -104 -11 -10
-9 -11 7 -5 15 5 17 4 9 -5 -8 -9 -19 -8 -45 3 -28 12 -31 16 -16 21 9 4 17
11 17 15 0 4 -8 7 -17 6 -10 0 -18 6 -18 14 0 8 8 14 18 14 9 -1 17 1 17 5 0
11 -54 56 -62 53 -5 -1 -8 5 -8 13 0 18 -16 20 -24 3 -3 -7 -3 -3 -1 9 4 14
-1 26 -15 36 -11 7 -25 28 -31 45 -6 17 -16 29 -22 26 -12 -4 -39 41 -29 50 8
9 23 -5 16 -16z m76 6 c0 -8 -5 -12 -10 -9 -6 4 -8 11 -5 16 9 14 15 11 15 -7z
m62 -26 c-9 -9 -12 -7 -12 12 0 19 3 21 12 12 9 -9 9 -15 0 -24z m-288 -23 c3
-9 0 -15 -9 -15 -16 0 -27 14 -18 24 10 10 21 7 27 -9z m-281 -27 c34 -13 35
-28 3 -26 -14 1 -22 6 -20 10 3 4 -1 8 -8 8 -8 0 -23 7 -34 16 -18 14 -18 15
6 9 14 -4 37 -11 53 -17z m182 2 c3 -5 -1 -10 -10 -10 -9 0 -13 5 -10 10 3 6
8 10 10 10 2 0 7 -4 10 -10z m-389 -38 c-9 -8 -26 10 -26 26 1 15 2 15 15 -2
8 -11 13 -21 11 -24z m274 28 c0 -5 -2 -10 -4 -10 -3 0 -8 5 -11 10 -3 6 -1
10 4 10 6 0 11 -4 11 -10z m273 -24 c20 -18 39 -31 41 -28 3 2 8 -7 11 -21 4
-14 13 -28 21 -31 8 -3 14 -14 14 -25 0 -11 6 -24 14 -28 16 -10 31 -53 18
-53 -5 0 -12 9 -15 20 -3 11 -12 20 -21 20 -9 0 -16 6 -16 13 0 8 -11 24 -25
37 -14 13 -25 28 -25 34 0 6 -16 28 -35 49 -19 21 -35 40 -35 43 0 12 20 1 53
-30z m-225 7 c6 -9 16 -14 25 -10 9 3 19 2 22 -3 3 -5 -7 -12 -22 -16 -15 -3
-34 -7 -40 -10 -7 -2 -13 3 -13 10 0 8 -3 21 -6 30 -8 22 22 21 34 -1z m87 -3
c-3 -5 -11 -10 -16 -10 -6 0 -7 5 -4 10 3 6 11 10 16 10 6 0 7 -4 4 -10z
m-574 -37 c23 -48 23 -49 -10 -19 -33 32 -39 46 -18 46 8 0 20 -12 28 -27z
m189 -15 c0 -16 -3 -19 -11 -11 -6 6 -8 16 -5 22 11 17 16 13 16 -11z m466
-12 c8 -11 14 -28 14 -38 0 -15 -5 -17 -32 -12 -18 4 -43 8 -55 8 -12 1 -26 9
-32 19 -10 14 -7 17 14 17 14 0 25 6 25 13 0 20 50 14 66 -7z m-236 4 c0 -5
-4 -10 -10 -10 -5 0 -10 5 -10 10 0 6 5 10 10 10 6 0 10 -4 10 -10z m660 -20
c0 -5 -5 -10 -11 -10 -5 0 -7 5 -4 10 3 6 8 10 11 10 2 0 4 -4 4 -10z m-1040
-31 c0 -6 -4 -7 -10 -4 -5 3 -10 11 -10 16 0 6 5 7 10 4 6 -3 10 -11 10 -16z
m515 -2 c17 -1 41 -8 53 -15 13 -8 26 -11 29 -8 4 3 12 1 20 -5 9 -9 13 -8 13
0 0 7 10 3 22 -9 12 -11 29 -20 38 -20 21 0 40 -20 40 -42 0 -10 4 -18 8 -18
9 0 62 -108 62 -126 0 -21 25 -64 38 -64 10 0 10 -5 2 -20 -6 -12 -8 -31 -4
-43 17 -51 18 -298 2 -369 -12 -52 -22 -18 -22 74 0 9 -3 15 -7 13 -4 -3 -10
5 -13 18 -4 13 -24 31 -52 45 -44 22 -47 22 -65 6 -10 -9 -19 -22 -20 -28 0
-6 -13 -21 -30 -34 -22 -18 -29 -20 -29 -8 0 8 8 17 18 19 13 4 12 5 -5 6 -14
1 -24 -7 -29 -21 -6 -21 -7 -21 -21 -2 -15 18 -15 18 -8 -3 4 -16 2 -23 -7
-23 -8 0 -15 8 -16 18 -1 9 -4 40 -7 67 -8 81 -10 90 -19 97 -5 3 -11 13 -12
22 -1 8 -12 25 -24 38 -32 33 -60 80 -60 101 0 10 -4 16 -9 13 -16 -10 -41 5
-41 24 0 11 -4 22 -10 25 -19 12 -10 26 12 19 20 -6 21 -5 10 9 -8 9 -11 25
-7 37 5 16 2 23 -14 27 -12 3 -21 13 -21 25 0 10 -4 16 -10 13 -6 -4 -10 8
-10 29 0 25 -4 36 -15 36 -12 0 -12 3 3 18 9 10 19 14 20 10 6 -13 22 -9 22 6
0 9 8 12 25 8 20 -3 24 -1 19 12 -6 15 -2 14 27 -3 50 -31 59 -34 67 -26 4 4
-3 15 -15 25 -13 10 -23 24 -23 30 0 8 8 10 23 5 12 -3 36 -7 52 -8z m310
-137 c0 -7 -6 -15 -12 -17 -8 -3 -13 4 -13 17 0 13 5 20 13 18 6 -3 12 -11 12
-18z m74 -83 c-10 -17 -9 -19 5 -14 25 10 44 -2 39 -24 -6 -23 -7 -23 -39 -3
-14 10 -24 13 -23 8 1 -5 1 -17 0 -27 -2 -26 -21 -10 -21 17 0 12 -7 31 -15
42 -26 34 -19 43 25 32 36 -9 38 -12 29 -31z m9 -109 c18 -18 15 -28 -8 -28
-13 0 -20 7 -20 20 0 23 10 26 28 8z m-364 -580 c-4 -18 -7 -42 -8 -52 -1 -11
-7 -21 -15 -24 -10 -3 -12 3 -6 29 6 34 25 79 32 79 3 0 1 -15 -3 -32z m-328
-211 c17 6 20 -22 3 -33 -17 -10 -43 22 -34 43 7 16 8 16 12 1 3 -10 10 -15
19 -11z m18 -62 c-6 -16 -24 -21 -24 -7 0 11 11 22 21 22 5 0 6 -7 3 -15z
m-834 -825 c-23 -18 -50 -26 -50 -15 0 4 58 33 70 34 3 0 -6 -8 -20 -19z
m-5290 -2294 c0 -3 -4 -8 -10 -11 -5 -3 -10 -1 -10 4 0 6 5 11 10 11 6 0 10
-2 10 -4z m728 -345 c27 -14 18 -41 -14 -41 -13 0 -24 5 -24 10 0 6 -8 10 -17
10 -15 0 -16 2 -3 10 12 7 8 10 -15 10 -23 0 -27 3 -15 10 17 11 58 7 88 -9z
m3672 -7 c0 -2 -7 -4 -15 -4 -8 0 -15 4 -15 10 0 5 7 7 15 4 8 -4 15 -8 15
-10z m215 -17 c16 -19 56 -35 105 -43 24 -3 51 -10 60 -15 8 -4 23 -10 32 -13
11 -3 15 -12 11 -25 -7 -27 -23 -27 -30 -1 -4 15 -11 19 -27 15 -17 -5 -18 -4
-6 5 12 9 5 10 -30 6 -26 -3 -37 -2 -26 3 19 7 19 8 -2 13 -12 4 -24 2 -27 -2
-3 -5 -17 2 -31 15 -14 13 -32 21 -40 18 -7 -3 -21 2 -29 11 -9 9 -24 16 -33
16 -14 0 -15 -2 -2 -10 12 -8 12 -10 -2 -15 -10 -4 -22 -4 -28 0 -5 3 -17 -1
-26 -9 -21 -21 -35 -20 -27 2 5 14 3 14 -9 -2 -15 -20 -55 -16 -43 4 3 5 1 10
-6 10 -8 0 -9 3 -3 9 12 12 56 17 70 8 7 -4 15 0 18 9 5 14 16 15 64 9 31 -3
62 -12 67 -18z m-3697 -63 c14 -1 49 -15 78 -29 l52 -27 -20 -23 c-12 -14 -29
-22 -44 -20 -14 1 -27 -2 -30 -7 -3 -4 -14 2 -24 14 -13 17 -21 20 -31 12 -10
-8 -19 -6 -31 8 -10 10 -13 18 -7 18 7 0 9 10 5 25 -8 30 0 48 16 39 6 -4 23
-8 36 -10z m-71 -26 c-3 -8 -6 -5 -6 6 -1 11 2 17 5 13 3 -3 4 -12 1 -19z
m4068 -24 c22 -12 51 -25 65 -29 91 -28 254 -121 243 -138 -5 -8 -2 -8 8 0 13
10 20 9 37 -7 12 -11 24 -20 28 -20 12 0 232 -128 309 -179 66 -44 118 -91
109 -100 -2 -2 -13 4 -24 14 -23 21 -76 28 -104 13 -12 -7 -16 -7 -12 0 3 6 2
13 -4 17 -5 3 -10 -1 -10 -9 0 -19 -20 -22 -21 -3 0 6 -4 2 -9 -10 -5 -12 -19
-27 -31 -33 -15 -8 -19 -9 -15 -1 4 6 0 11 -9 11 -11 0 -15 -5 -12 -14 3 -8
-2 -16 -14 -19 -12 -3 -19 0 -19 8 0 14 -54 39 -80 38 -8 -1 -22 3 -31 8 -12
6 -19 4 -23 -7 -8 -20 -26 -8 -26 17 0 10 -7 19 -15 19 -9 0 -12 6 -8 17 4 11
3 14 -6 9 -6 -4 -19 -5 -29 -1 -14 5 -14 7 -2 15 11 7 5 10 -22 10 -28 0 -38
4 -38 16 0 10 6 14 15 10 9 -3 15 0 15 10 0 8 -3 13 -7 11 -5 -3 -26 -2 -48 2
-36 6 -40 9 -37 33 2 19 -2 28 -15 31 -14 4 -12 5 6 6 19 1 22 5 17 24 -3 12
-6 29 -6 37 -1 9 -6 6 -14 -9 -14 -25 -31 -14 -20 13 4 12 0 16 -15 16 -12 0
-20 3 -19 8 4 19 -16 41 -43 47 -22 5 -29 12 -29 30 0 13 -5 27 -11 31 -8 4
-9 0 -4 -15 4 -15 2 -21 -9 -21 -19 0 -33 23 -18 28 15 5 16 39 1 48 -7 4 -16
-1 -21 -11 -8 -14 -12 -15 -19 -4 -5 8 -3 17 4 21 9 6 9 8 0 8 -6 0 -15 -4
-18 -10 -10 -16 -22 -12 -22 8 -3 47 7 47 82 6z m-1040 -14 c4 -6 11 -8 16 -5
5 4 9 -1 9 -9 0 -8 -4 -18 -10 -21 -5 -3 -10 -2 -10 4 0 5 -7 17 -16 25 -8 9
-11 16 -5 16 5 0 13 -5 16 -10z m2255 -5 c0 -8 0 -17 0 -20 0 -16 -15 -2 -16
15 -1 11 3 20 7 20 5 0 9 -7 9 -15z m-2196 -2 c4 -5 12 -9 17 -9 5 -1 15 -2
22 -3 8 -1 7 -5 -4 -14 -20 -15 -29 -51 -18 -68 6 -10 9 -4 9 16 0 33 -3 32
73 26 11 -1 16 -6 11 -13 -5 -10 -4 -10 5 -2 15 14 65 -8 92 -38 9 -10 21 -18
27 -18 5 0 12 -7 15 -14 3 -8 20 -22 38 -32 18 -9 51 -37 73 -62 23 -25 50
-56 61 -67 39 -41 82 -100 89 -123 4 -12 11 -20 15 -18 4 3 15 -11 24 -30 21
-43 21 -45 1 -37 -13 5 -15 2 -9 -18 10 -32 25 -50 36 -43 8 4 12 -28 13 -87
0 -10 5 -15 13 -12 7 3 13 -2 13 -11 0 -9 4 -16 9 -16 4 0 14 -21 21 -47 8
-27 18 -51 23 -54 14 -9 17 -73 5 -90 -8 -11 -8 -10 -4 5 6 16 4 17 -9 6 -21
-18 -19 -29 9 -41 16 -7 24 -19 24 -36 0 -16 -3 -21 -8 -12 -5 7 -20 13 -33
13 -14 1 -23 -2 -21 -6 2 -3 -9 -6 -26 -6 -16 1 -30 5 -30 10 0 4 -11 6 -25 2
-14 -3 -25 -2 -24 2 4 21 -2 28 -11 14 -8 -13 -10 -12 -10 3 0 9 -4 17 -10 17
-5 0 -10 8 -10 19 0 10 -20 39 -45 63 -26 26 -45 55 -45 67 0 18 -4 21 -20 16
-16 -5 -19 -3 -13 11 4 12 3 15 -6 10 -8 -6 -10 -1 -6 17 4 14 2 28 -4 31 -6
4 -11 18 -11 30 0 19 -5 23 -26 20 -15 -1 -30 -7 -33 -13 -9 -13 -87 -6 -84 8
2 6 -3 8 -10 5 -12 -4 -20 86 -18 219 0 18 -4 27 -12 24 -12 -4 -57 72 -57 96
0 8 -6 17 -12 20 -7 2 -22 30 -32 61 -14 41 -24 56 -38 56 -18 0 -24 31 -18
98 1 12 -3 22 -9 22 -6 0 -11 9 -11 20 0 20 11 26 24 13z m863 -45 c-3 -8 -6
-5 -6 6 -1 11 2 17 5 13 3 -3 4 -12 1 -19z m-3848 -29 c17 -16 20 -24 10 -35
-6 -8 -17 -14 -23 -14 -8 0 -8 2 1 8 8 5 8 13 -1 31 -9 15 -16 20 -20 12 -11
-16 -26 -13 -20 4 8 21 26 19 53 -6z m2967 5 c-3 -9 -7 -28 -7 -42 -1 -17 -3
-21 -6 -9 -2 9 -8 15 -12 13 -4 -3 -13 0 -21 6 -12 8 -11 9 3 4 12 -4 17 -2
15 6 -5 13 12 37 26 38 4 0 5 -7 2 -16z m2259 -39 l6 -30 -15 25 c-17 28 -22
60 -7 45 5 -6 12 -23 16 -40z m-1235 -5 c0 -5 -7 -10 -16 -10 -8 0 -12 5 -9
10 3 6 10 10 16 10 5 0 9 -4 9 -10z m68 -22 c-7 -19 -38 -22 -38 -4 0 10 9 16
21 16 12 0 19 -5 17 -12z m-3068 -6 c0 -5 11 -14 25 -20 30 -14 65 -68 65
-101 0 -20 -4 -23 -30 -19 -28 4 -30 3 -30 -29 0 -20 4 -32 10 -28 6 4 10 -7
9 -27 0 -29 -2 -30 -10 -13 -5 11 -24 28 -40 38 -17 9 -33 26 -36 37 -3 11 -9
20 -14 20 -5 0 -9 11 -9 24 0 20 4 23 28 20 22 -3 21 -2 -6 7 -29 8 -32 12
-21 25 10 13 10 17 0 24 -11 6 -11 9 0 13 12 5 11 8 -1 17 -12 9 -11 10 8 5
13 -4 22 -2 22 4 0 6 7 11 15 11 8 0 15 -4 15 -8z m3085 -52 c3 -6 -4 -10 -17
-10 -18 0 -20 2 -8 10 19 12 18 12 25 0z m-4415 -50 c0 -5 -7 -7 -15 -4 -8 4
-15 8 -15 10 0 2 7 4 15 4 8 0 15 -4 15 -10z m1477 -92 c-3 -8 -6 -5 -6 6 -1
11 2 17 5 13 3 -3 4 -12 1 -19z m1433 -13 c0 -5 -5 -3 -10 5 -5 8 -10 20 -10
25 0 6 5 3 10 -5 5 -8 10 -19 10 -25z m-1299 -13 c0 -11 2 -13 6 -4 10 24 53
34 79 17 13 -8 30 -12 39 -9 10 4 14 2 10 -7 -6 -17 13 -42 40 -54 19 -8 19
-9 -2 -12 -27 -5 -31 -22 -5 -24 15 -1 14 -2 -2 -6 -15 -4 -16 -7 -5 -14 10
-6 10 -9 2 -9 -7 0 -13 -7 -13 -15 0 -8 -7 -15 -15 -15 -8 0 -15 -4 -15 -8 0
-5 -11 -15 -25 -22 -20 -11 -23 -16 -12 -28 10 -13 9 -15 -10 -10 -12 3 -33
-2 -50 -13 -39 -26 -48 -24 -88 17 -29 29 -35 43 -33 71 1 19 6 36 10 39 4 3
4 12 1 20 -3 9 0 20 7 24 19 12 21 40 4 47 -23 8 -17 35 6 28 11 -3 27 -2 37
4 21 11 33 6 34 -17z m729 -22 c0 -5 -4 -10 -10 -10 -5 0 -10 5 -10 10 0 6 5
10 10 10 6 0 10 -4 10 -10z m-903 -32 c-3 -7 -5 -2 -5 12 0 14 2 19 5 13 2 -7
2 -19 0 -25z m480 -10 c-3 -7 -5 -2 -5 12 0 14 2 19 5 13 2 -7 2 -19 0 -25z
m5068 -6 l40 -8 -42 -5 c-24 -2 -43 -1 -43 3 0 5 -13 8 -30 8 -16 0 -30 5 -30
11 0 12 5 11 105 -9z m-7080 -2 c3 -5 1 -10 -4 -10 -6 0 -11 5 -11 10 0 6 2
10 4 10 3 0 8 -4 11 -10z m6629 -25 c15 -8 39 -15 52 -15 13 0 47 -9 76 -20
29 -11 63 -20 76 -20 12 0 22 -4 22 -10 0 -5 7 -10 15 -10 8 0 15 -5 15 -11 0
-5 4 -8 9 -4 5 3 12 2 15 -3 3 -5 19 -7 36 -4 18 2 30 0 30 -7 0 -6 9 -11 19
-11 11 0 23 -4 26 -10 3 -5 13 -10 21 -10 8 0 34 -9 56 -20 23 -11 49 -20 59
-20 9 0 22 -7 29 -15 7 -8 20 -15 28 -15 15 0 15 -2 0 -16 -15 -15 -19 -15
-53 6 -34 21 -40 22 -78 9 -23 -7 -45 -17 -48 -23 -4 -5 -15 -5 -25 -1 -29 13
-86 12 -120 -2 -32 -13 -44 -9 -44 13 0 8 6 11 15 8 9 -4 15 0 15 10 0 8 -11
18 -25 22 -14 3 -22 10 -19 15 3 5 -5 13 -18 18 -13 6 -17 10 -10 10 19 1 14
21 -5 21 -14 0 -15 2 -4 9 11 7 11 10 0 17 -7 4 -14 3 -17 -4 -6 -19 -40 -14
-47 7 -3 11 -13 22 -23 26 -14 5 -14 7 -2 16 10 6 5 7 -17 3 -19 -4 -33 -2
-33 3 0 14 -41 30 -72 29 -17 -1 -28 4 -28 11 0 17 38 16 74 -2z m572 6 c-3
-5 -15 -7 -26 -4 -28 7 -25 13 6 13 14 0 23 -4 20 -9z m129 -1 c4 -6 -7 -10
-24 -10 -17 0 -31 5 -31 10 0 6 11 10 24 10 14 0 28 -4 31 -10z m165 -15 c0
-8 -5 -15 -11 -15 -5 0 -7 4 -4 10 4 6 -11 8 -37 5 -24 -2 -50 0 -58 5 -10 7
4 10 48 10 48 0 62 -3 62 -15z m70 -10 c-7 -8 -14 -15 -15 -15 -2 0 -5 7 -9
15 -4 10 1 15 16 15 17 0 18 -2 8 -15z m-2314 -43 c-4 -3 -14 2 -24 12 -16 18
-16 18 6 6 13 -6 21 -14 18 -18z m29 18 c3 -5 1 -10 -4 -10 -6 0 -11 5 -11 10
0 6 2 10 4 10 3 0 8 -4 11 -10z m-3278 -66 c-9 -10 -38 16 -31 28 4 6 13 4 22
-6 9 -8 13 -19 9 -22z m40 16 c-1 -5 7 -16 18 -25 19 -16 19 -16 -12 -11 -31
5 -33 4 -33 -24 0 -34 -6 -36 -38 -14 -30 21 -28 30 9 38 27 5 30 9 25 30 -5
20 -3 23 14 19 10 -3 18 -9 17 -13z m-2049 -12 c-6 -18 -28 -21 -28 -4 0 9 7
16 16 16 9 0 14 -5 12 -12z m-98 -18 c0 -5 -4 -10 -10 -10 -5 0 -10 5 -10 10
0 6 5 10 10 10 6 0 10 -4 10 -10z m4149 -24 c9 -11 7 -15 -8 -19 -14 -3 -17 0
-14 14 6 23 7 23 22 5z m1355 8 c23 -9 20 -23 -4 -17 -11 3 -20 9 -20 14 0 11
3 11 24 3z m101 -74 c3 -5 1 -10 -4 -10 -6 0 -11 5 -11 10 0 6 2 10 4 10 3 0
8 -4 11 -10z m1620 0 c-3 -5 -11 -10 -16 -10 -6 0 -7 5 -4 10 3 6 11 10 16 10
6 0 7 -4 4 -10z m160 -20 c4 -6 -2 -7 -16 -1 -13 4 -25 14 -27 20 -3 10 0 10
16 2 12 -6 24 -16 27 -21z m-5375 -20 c0 -5 -4 -10 -9 -10 -6 0 -13 5 -16 10
-3 6 1 10 9 10 9 0 16 -4 16 -10z m1716 -20 c0 -12 -4 -16 -9 -11 -5 5 -6 14
-3 20 10 15 12 14 12 -9z m-1566 -26 c0 -8 -4 -12 -10 -9 -5 3 -10 10 -10 16
0 5 5 9 10 9 6 0 10 -7 10 -16z m6532 -4 c10 0 18 -4 18 -10 0 -5 -7 -10 -16
-10 -24 0 -55 20 -48 31 4 7 10 7 17 0 6 -6 19 -11 29 -11z m120 -44 c10 -15
0 -22 -14 -8 -7 7 -20 12 -31 12 -10 0 -15 5 -12 10 8 12 47 3 57 -14z m-6762
4 c0 -5 -2 -10 -4 -10 -3 0 -8 5 -11 10 -3 6 -1 10 4 10 6 0 11 -4 11 -10z
m6510 -10 c0 -5 -4 -10 -10 -10 -5 0 -10 5 -10 10 0 6 5 10 10 10 6 0 10 -4
10 -10z m-8497 -60 c7 0 6 -4 -3 -10 -18 -11 -31 6 -22 29 6 14 7 14 10 -1 2
-10 9 -18 15 -18z m4167 -30 c0 -5 -5 -10 -11 -10 -5 0 -7 5 -4 10 3 6 8 10
11 10 2 0 4 -4 4 -10z"/>
<path d="M6850 6936 c0 -9 4 -16 10 -16 5 0 7 -8 4 -17 -5 -17 -5 -17 6 0 9
13 8 21 -4 33 -15 14 -16 14 -16 0z"/>
<path d="M6982 6610 c13 -24 29 -40 40 -40 26 0 22 15 -11 43 -17 14 -27 28
-24 31 4 3 -1 6 -10 6 -14 0 -13 -5 5 -40z"/>
<path d="M6890 6591 c0 -6 5 -13 10 -16 6 -3 10 1 10 9 0 9 -4 16 -10 16 -5 0
-10 -4 -10 -9z"/>
<path d="M6075 6734 c9 -9 18 -14 21 -11 9 9 -6 27 -22 27 -13 0 -13 -2 1 -16z"/>
<path d="M5837 6728 c-3 -8 5 -14 20 -14 19 -2 22 1 12 12 -14 17 -25 18 -32
2z"/>
<path d="M6060 6671 c0 -5 7 -12 16 -15 24 -9 27 -7 10 9 -17 17 -26 19 -26 6z"/>
<path d="M6348 6553 c7 -3 16 -2 19 1 4 3 -2 6 -13 5 -11 0 -14 -3 -6 -6z"/>
<path d="M6010 6520 c0 -5 5 -10 11 -10 5 0 7 5 4 10 -3 6 -8 10 -11 10 -2 0
-4 -4 -4 -10z"/>
<path d="M6405 6420 c-3 -5 3 -10 15 -10 12 0 18 5 15 10 -3 6 -10 10 -15 10
-5 0 -12 -4 -15 -10z"/>
<path d="M6329 6381 c11 -7 10 -11 -5 -20 -19 -10 -19 -10 0 -11 10 0 24 -7
31 -17 7 -9 17 -13 23 -9 16 10 15 26 -1 26 -7 0 -18 9 -25 20 -7 11 -18 20
-25 20 -9 0 -8 -3 2 -9z"/>
<path d="M6397 6330 c-9 -11 -17 -28 -17 -38 1 -16 1 -16 11 1 13 22 35 22 43
1 4 -9 9 -14 13 -10 3 3 -1 14 -9 23 -9 10 -17 24 -19 31 -3 9 -10 6 -22 -8z"/>
<path d="M6501 6251 c-11 -7 -9 -10 10 -13 13 -1 29 -14 36 -28 10 -20 13 -22
18 -8 4 10 -2 25 -14 37 -23 23 -30 25 -50 12z"/>
<path d="M6450 6196 c0 -2 7 -6 15 -10 8 -3 15 -1 15 4 0 6 -7 10 -15 10 -8 0
-15 -2 -15 -4z"/>
<path d="M6583 6166 c27 -21 2 -30 -28 -10 -30 20 -41 14 -26 -15 13 -23 48
-24 75 -2 18 15 19 15 13 -1 -8 -24 4 -30 20 -10 14 16 14 16 9 0 -3 -11 0
-18 8 -18 8 0 16 -6 19 -12 2 -8 8 -9 13 -4 5 5 4 11 -3 13 -7 3 -13 10 -13
16 0 7 -18 22 -40 35 -43 24 -77 30 -47 8z"/>
<path d="M6695 6120 c4 -6 11 -8 16 -5 14 9 11 15 -7 15 -8 0 -12 -5 -9 -10z"/>
<path d="M6360 6056 c0 -8 5 -18 10 -21 6 -3 10 3 10 14 0 12 -4 21 -10 21 -5
0 -10 -6 -10 -14z"/>
<path d="M6400 6021 c0 -12 5 -21 10 -21 6 0 10 6 10 14 0 8 -4 18 -10 21 -5
3 -10 -3 -10 -14z"/>
<path d="M6410 5709 c7 -11 14 -18 17 -15 8 8 -5 36 -17 36 -7 0 -7 -6 0 -21z"/>
<path d="M6745 5650 c4 -6 11 -8 16 -5 14 9 11 15 -7 15 -8 0 -12 -5 -9 -10z"/>
<path d="M6780 5616 c0 -2 8 -10 18 -17 15 -13 16 -12 3 4 -13 16 -21 21 -21
13z"/>
<path d="M6467 5564 c-4 -4 -7 -17 -7 -28 1 -19 1 -20 11 -3 11 19 8 43 -4 31z"/>
<path d="M6540 5496 c0 -17 14 -29 23 -20 8 8 -3 34 -14 34 -5 0 -9 -6 -9 -14z"/>
<path d="M6750 5481 c0 -12 5 -31 12 -44 25 -49 27 -57 22 -72 -5 -11 -2 -14
11 -9 12 5 15 14 10 32 -3 13 -9 37 -12 53 -3 15 -14 36 -24 45 -18 16 -19 16
-19 -5z"/>
<path d="M6830 5466 c0 -28 10 -38 27 -28 13 8 -1 52 -17 52 -5 0 -10 -11 -10
-24z"/>
<path d="M6851 5344 c-1 -29 4 -44 14 -48 12 -4 14 0 9 22 -15 60 -23 69 -23
26z"/>
<path d="M6801 5327 c0 -16 6 -35 14 -43 13 -14 15 -13 15 5 0 12 -4 21 -9 21
-5 0 -12 10 -14 23 -4 18 -4 17 -6 -6z"/>
<path d="M5160 992 c1 -9 26 -42 33 -42 11 0 -6 39 -19 44 -8 3 -14 2 -14 -2z"/>
<path d="M5210 959 c0 -5 5 -7 10 -4 6 3 10 8 10 11 0 2 -4 4 -10 4 -5 0 -10
-5 -10 -11z"/>
<path d="M5272 898 c-7 -7 -12 -16 -12 -20 0 -15 15 -8 28 12 13 22 3 27 -16
8z"/>
<path d="M4161 915 c0 -35 1 -37 10 -17 6 15 5 30 -1 40 -7 13 -9 8 -9 -23z"/>
<path d="M4495 320 c3 -5 8 -10 11 -10 2 0 4 5 4 10 0 6 -5 10 -11 10 -5 0 -7
-4 -4 -10z"/>
<path d="M2515 630 c-3 -5 1 -10 10 -10 9 0 13 5 10 10 -3 6 -8 10 -10 10 -2
0 -7 -4 -10 -10z"/>
<path d="M2440 490 c12 -22 35 -26 46 -9 8 13 -13 29 -39 29 -15 0 -16 -3 -7
-20z"/>
<path d="M5333 9456 c4 -37 2 -56 -6 -59 -8 -2 -6 -10 6 -21 10 -10 15 -21 12
-24 -3 -4 -10 0 -14 7 -5 8 -11 9 -15 3 -6 -9 14 -22 35 -22 10 0 12 33 2 43
-3 4 -5 34 -4 67 2 42 -1 60 -10 60 -8 0 -10 -15 -6 -54z"/>
<path d="M9450 9478 c0 -36 4 -35 14 5 4 16 2 27 -4 27 -5 0 -10 -14 -10 -32z"/>
<path d="M9478 9480 c-16 -85 -21 -100 -29 -100 -5 0 -9 -7 -9 -15 0 -9 9 -15
25 -15 26 0 33 18 14 37 -13 13 -4 63 11 63 6 0 8 -11 4 -25 -4 -15 -2 -25 5
-25 6 0 11 18 11 41 0 22 -4 38 -9 34 -5 -3 -11 5 -13 17 -3 18 -5 16 -10 -12z"/>
<path d="M5292 9375 c0 -16 2 -22 5 -12 2 9 2 23 0 30 -3 6 -5 -1 -5 -18z"/>
<path d="M9501 9338 c-1 -19 -21 -26 -21 -8 0 6 -4 10 -10 10 -5 0 -7 -7 -4
-15 4 -8 1 -15 -4 -15 -6 0 -13 8 -15 18 -3 9 -5 -40 -6 -110 -1 -128 -1 -128
22 -128 36 0 38 -10 10 -46 -21 -28 -23 -37 -13 -49 8 -10 9 -15 2 -15 -6 0
-9 -7 -6 -15 4 -8 1 -15 -5 -15 -6 0 -11 5 -11 12 0 6 -2 9 -5 6 -3 -3 -8 -81
-11 -174 -3 -93 -1 -164 3 -157 5 7 14 9 22 4 9 -6 8 -9 -7 -13 -17 -5 -20
-18 -26 -114 -5 -68 -4 -110 2 -112 5 -1 7 -12 5 -24 -4 -11 0 -24 8 -29 11
-7 10 -9 -3 -9 -15 0 -18 -9 -17 -52 1 -39 3 -46 8 -28 6 22 8 23 14 7 4 -11
4 -23 1 -28 -3 -5 5 -18 17 -28 15 -12 22 -29 22 -49 0 -20 5 -32 14 -32 20 0
28 29 15 51 -7 11 -8 20 -2 24 15 9 12 515 -3 515 -9 0 -8 3 1 9 9 5 12 27 10
72 -3 58 -5 64 -26 67 -19 3 -21 6 -11 18 10 12 8 18 -7 30 -18 14 -17 15 14
11 35 -4 43 11 17 33 -8 7 -15 16 -15 21 0 5 7 6 15 3 8 -4 15 -1 15 5 0 6 -5
11 -12 11 -9 0 -9 3 0 12 7 7 12 31 12 55 0 39 -2 43 -25 43 -22 0 -25 5 -27
38 -5 114 -5 152 3 152 5 0 10 -8 10 -17 8 -91 7 -89 26 -70 15 14 15 21 5 37
-15 25 -16 57 -1 62 6 2 9 13 6 23 -4 17 -5 17 -6 3z m-6 -548 c3 -5 -1 -10
-10 -10 -9 0 -13 5 -10 10 3 6 8 10 10 10 2 0 7 -4 10 -10z m-35 -484 c0 -11
-19 -15 -25 -6 -3 5 1 10 9 10 9 0 16 -2 16 -4z"/>
<path d="M5330 9320 c0 -5 5 -10 11 -10 5 0 7 5 4 10 -3 6 -8 10 -11 10 -2 0
-4 -4 -4 -10z"/>
<path d="M3132 9290 c0 -14 2 -19 5 -12 2 6 2 18 0 25 -3 6 -5 1 -5 -13z"/>
<path d="M5345 9290 c-3 -5 -1 -10 4 -10 6 0 11 5 11 10 0 6 -2 10 -4 10 -3 0
-8 -4 -11 -10z"/>
<path d="M4354 9261 c21 -23 26 -26 26 -11 0 5 -10 15 -22 21 -23 12 -23 12
-4 -10z"/>
<path d="M5353 9130 c0 -47 2 -66 4 -42 2 23 2 61 0 85 -2 23 -4 4 -4 -43z"/>
<path d="M4360 9130 c0 -5 5 -10 10 -10 6 0 10 5 10 10 0 6 -4 10 -10 10 -5 0
-10 -4 -10 -10z"/>
<path d="M5178 9103 c7 -3 16 -2 19 1 4 3 -2 6 -13 5 -11 0 -14 -3 -6 -6z"/>
<path d="M9432 9055 c0 -16 2 -22 5 -12 2 9 2 23 0 30 -3 6 -5 -1 -5 -18z"/>
<path d="M3112 9040 c-7 -11 -12 -25 -12 -32 0 -7 7 0 15 16 18 33 15 45 -3
16z"/>
<path d="M3050 9000 c0 -5 5 -10 10 -10 6 0 10 5 10 10 0 6 -4 10 -10 10 -5 0
-10 -4 -10 -10z"/>
<path d="M2935 8411 c-3 -5 -1 -12 5 -16 5 -3 10 1 10 9 0 18 -6 21 -15 7z"/>
<path d="M9406 8204 c-4 -9 -4 -19 -1 -22 2 -3 7 3 11 12 4 9 4 19 1 22 -2 3
-7 -3 -11 -12z"/>
<path d="M9420 8165 c0 -8 2 -15 4 -15 2 0 6 7 10 15 3 8 1 15 -4 15 -6 0 -10
-7 -10 -15z"/>
<path d="M9441 8094 c0 -11 3 -14 6 -6 3 7 2 16 -1 19 -3 4 -6 -2 -5 -13z"/>
<path d="M848 633 c7 -3 16 -2 19 1 4 3 -2 6 -13 5 -11 0 -14 -3 -6 -6z"/>
<path d="M3267 555 c-4 -8 -2 -17 3 -20 6 -4 10 3 10 14 0 25 -6 27 -13 6z"/>
<path d="M760 540 c0 -5 5 -10 10 -10 6 0 10 5 10 10 0 6 -4 10 -10 10 -5 0
-10 -4 -10 -10z"/>
<path d="M3497 542 c-4 -6 -14 -9 -22 -5 -16 6 -19 -5 -7 -24 10 -15 46 10 40
28 -3 10 -6 10 -11 1z"/>
<path d="M3166 531 c-4 -7 -5 -15 -2 -18 9 -9 19 4 14 18 -4 11 -6 11 -12 0z"/>
<path d="M3196 514 c-4 -9 -4 -19 -1 -22 2 -3 7 3 11 12 4 9 4 19 1 22 -2 3
-7 -3 -11 -12z"/>
<path d="M3240 495 c0 -8 -5 -15 -12 -15 -6 0 -8 -3 -5 -6 8 -8 37 14 37 27 0
5 -4 9 -10 9 -5 0 -10 -7 -10 -15z"/>
<path d="M3356 425 c4 -8 7 -15 9 -15 2 0 5 7 9 15 3 9 0 15 -9 15 -9 0 -12
-6 -9 -15z"/>
<path d="M3295 389 c-10 -16 1 -22 26 -14 17 6 19 9 8 16 -19 12 -26 11 -34
-2z"/>
<path d="M8965 330 c11 -5 29 -9 40 -9 l20 0 -20 9 c-11 5 -29 9 -40 9 l-20 0
20 -9z"/>
<path d="M727 291 c3 -12 10 -21 15 -21 13 0 6 32 -9 37 -7 3 -9 -3 -6 -16z"/>
<path d="M703 245 c-14 -15 -17 -35 -7 -35 8 0 33 32 34 43 0 11 -14 8 -27 -8z"/>
<path d="M730 230 c-8 -5 -12 -12 -9 -15 4 -3 12 1 19 10 14 17 11 19 -10 5z"/>
<path d="M6632 226 c7 -8 15 -12 17 -11 5 6 -10 25 -20 25 -5 0 -4 -6 3 -14z"/>
<path d="M6650 160 c0 -5 5 -10 10 -10 6 0 10 5 10 10 0 6 -4 10 -10 10 -5 0
-10 -4 -10 -10z"/>
<path d="M6760 160 c0 -5 5 -10 11 -10 5 0 7 5 4 10 -3 6 -8 10 -11 10 -2 0
-4 -4 -4 -10z"/>
<path d="M696 101 c-3 -5 1 -11 9 -15 9 -3 15 0 15 9 0 16 -16 20 -24 6z"/>
<path d="M765 100 c-3 -5 -1 -10 4 -10 6 0 11 5 11 10 0 6 -2 10 -4 10 -3 0
-8 -4 -11 -10z"/>
<path d="M845 90 c-3 -5 -1 -10 4 -10 6 0 11 5 11 10 0 6 -2 10 -4 10 -3 0 -8
-4 -11 -10z"/>
<path d="M9031 84 c0 -11 3 -14 6 -6 3 7 2 16 -1 19 -3 4 -6 -2 -5 -13z"/>
<path d="M9221 51 c-11 -11 -22 -17 -24 -14 -3 2 -10 -5 -17 -16 -10 -19 -8
-21 19 -21 16 0 32 6 34 13 4 9 6 9 6 0 1 -20 25 -15 39 8 11 18 11 23 -5 35
-24 18 -30 17 -52 -5z"/>
<path d="M9287 23 c-14 -13 -6 -20 24 -21 25 -1 28 2 18 14 -12 15 -31 18 -42
7z"/>
<path d="M820 10 c0 -5 7 -10 16 -10 8 0 12 5 9 10 -3 6 -10 10 -16 10 -5 0
-9 -4 -9 -10z"/>
</g>
</svg>
